<?xml version="1.0" encoding="utf-8"?>
<!-- Generator: Adobe Illustrator 15.0.0, SVG Export Plug-In  -->
<!DOCTYPE svg PUBLIC "-//W3C//DTD SVG 1.1//EN" "http://www.w3.org/Graphics/SVG/1.1/DTD/svg11.dtd" [
	<!ENTITY ns_flows "http://ns.adobe.com/Flows/1.0/">
]>
<svg version="1.1"
	 xmlns="http://www.w3.org/2000/svg" xmlns:xlink="http://www.w3.org/1999/xlink" xmlns:a="http://ns.adobe.com/AdobeSVGViewerExtensions/3.0/"
	 x="0px" y="0px" width="183px" height="231px" viewBox="-24.429 -8 183 231"
	 overflow="visible" enable-background="new -24.429 -8 183 231" xml:space="preserve">
<defs>
</defs>
<path fill="#F2F9FE" d="M97.752,51.887c0,2.946-2.401,5.353-5.341,5.353H43.546c-2.946,0-5.347-2.406-5.347-5.353l0,0
	c0-2.93,2.401-5.341,5.347-5.341h48.865C95.352,46.546,97.752,48.957,97.752,51.887L97.752,51.887L97.752,51.887z"/>
<path fill="#E1EEFA" d="M11.457,210.599c-3.958,0-7.799-2.057-9.919-5.718c-2.125-3.678-1.972-8.031,0-11.458L67.979,78.338
	l66.441,115.08c1.967,3.432,2.122,7.785,0,11.457c-2.125,3.667-5.966,5.724-9.922,5.724H11.457L11.457,210.599L11.457,210.599z"/>
<path fill="#B04599" d="M129.785,196.091l-23.33-40.424h-16.99c-1.097-1.539-2.887-2.548-4.924-2.548
	c-2.027,0-3.822,1.009-4.916,2.548H69.026c-2.133-3.415-5.898-5.696-10.214-5.696c-4.305,0-8.081,2.281-10.208,5.696H29.502
	l-23.33,40.424c-1.091,1.888-1.091,4.229,0,6.111c1.078,1.877,3.104,3.055,5.284,3.055h113.042c2.183,0,4.207-1.178,5.287-3.055
	C130.871,200.319,130.871,197.979,129.785,196.091L129.785,196.091z"/>
<polygon fill="#CEE2F1" points="43.159,57.234 92.785,57.234 92.785,121.31 43.159,121.31 43.159,57.234 "/>
<path fill="#B04599" d="M63.379,0c3.394,0,6.146,2.75,6.146,6.144s-2.752,6.149-6.146,6.149c-3.391,0-6.143-2.755-6.143-6.149
	S59.988,0,63.379,0L63.379,0z"/>
<path fill="#D7AED1" d="M62.288,2.231c0.6,0.6,0.453,1.724-0.328,2.499c-0.774,0.774-1.898,0.922-2.499,0.316
	c-0.601-0.6-0.448-1.713,0.327-2.499C60.564,1.773,61.688,1.626,62.288,2.231L62.288,2.231z"/>
<path fill="#B04599" d="M88.393,21.862c0,4.703-3.814,8.506-8.503,8.506c-4.698,0-8.506-3.803-8.506-8.506
	c0-4.692,3.808-8.5,8.506-8.5C84.579,13.362,88.393,17.17,88.393,21.862L88.393,21.862z"/>
<path fill="#D7AED1" d="M78.525,16.428c0.856,0.873,0.666,2.482-0.464,3.612c-1.129,1.119-2.747,1.332-3.612,0.464
	c-0.868-0.878-0.663-2.488,0.458-3.612C76.037,15.763,77.649,15.561,78.525,16.428L78.525,16.428z"/>
<path fill="#B04599" d="M68.388,36.894c0,2.128-1.735,3.857-3.854,3.857c-2.131,0-3.86-1.729-3.86-3.857s1.729-3.857,3.86-3.857
	C66.653,33.037,68.388,34.766,68.388,36.894L68.388,36.894z"/>
<path fill="#D7AED1" d="M63.914,34.428c0.393,0.393,0.292,1.129-0.213,1.637c-0.513,0.507-1.241,0.6-1.637,0.213
	c-0.393-0.398-0.306-1.129,0.212-1.642C62.779,34.128,63.516,34.035,63.914,34.428L63.914,34.428z"/>
<path fill="#E1EEFA" d="M86.764,159.148c0,1.228-0.998,2.22-2.223,2.22s-2.209-0.992-2.209-2.22c0-1.223,0.984-2.21,2.209-2.21
	S86.764,157.926,86.764,159.148L86.764,159.148z"/>
<path fill="#FFFFFF" d="M84.188,157.735c0.229,0.224,0.169,0.648-0.117,0.938c-0.297,0.295-0.717,0.35-0.941,0.12
	c-0.229-0.224-0.174-0.644,0.12-0.938C83.542,157.561,83.959,157.506,84.188,157.735L84.188,157.735z"/>
<path fill="#E1EEFA" d="M63.875,161.996c0,2.794-2.27,5.058-5.063,5.058s-5.058-2.264-5.058-5.058s2.264-5.058,5.058-5.058
	S63.875,159.202,63.875,161.996L63.875,161.996z"/>
<path fill="#FFFFFF" d="M57.994,158.755c0.523,0.519,0.404,1.484-0.268,2.145c-0.671,0.677-1.626,0.802-2.155,0.284
	c-0.504-0.514-0.393-1.479,0.284-2.15C56.523,158.362,57.481,158.237,57.994,158.755L57.994,158.755z"/>
<path fill="#E1EEFA" d="M51.425,185.452c0,3.792-3.074,6.874-6.864,6.874c-3.8,0-6.877-3.077-6.877-6.874
	c0-3.798,3.075-6.875,6.877-6.875C48.351,178.577,51.425,181.654,51.425,185.452L51.425,185.452z"/>
<path fill="#FFFFFF" d="M43.454,181.054c0.709,0.699,0.54,2.014-0.371,2.919c-0.911,0.906-2.209,1.075-2.919,0.371
	c-0.693-0.698-0.535-2.008,0.371-2.913C41.446,180.514,42.755,180.345,43.454,181.054L43.454,181.054z"/>
<path fill="#E1EEFA" d="M89.208,177.071c0,5.821-4.722,10.547-10.541,10.547c-5.824,0-10.541-4.726-10.541-10.547
	c0-5.816,4.714-10.53,10.541-10.53C84.489,166.535,89.208,171.255,89.208,177.071L89.208,177.071z"/>
<path fill="#FFFFFF" d="M76.97,170.339c1.081,1.074,0.824,3.082-0.567,4.468c-1.391,1.392-3.388,1.648-4.474,0.567
	c-1.069-1.069-0.821-3.077,0.57-4.474C73.893,169.515,75.898,169.253,76.97,170.339L76.97,170.339z"/>
<path fill="#E1EEFA" d="M96.612,191.546c1.686,0,3.053,1.364,3.053,3.05c0,1.687-1.367,3.051-3.053,3.051
	c-1.686,0-3.053-1.364-3.053-3.051C93.56,192.91,94.926,191.546,96.612,191.546L96.612,191.546z"/>
<path fill="#FFFFFF" d="M96.124,192.648c0.316,0.316,0.234,0.895-0.167,1.299c-0.404,0.397-0.982,0.475-1.304,0.163
	c-0.3-0.311-0.234-0.895,0.169-1.293C95.226,192.408,95.815,192.337,96.124,192.648L96.124,192.648z"/>
</svg>
