<?xml version="1.0" encoding="utf-8"?>
<!-- Generator: Adobe Illustrator 15.0.0, SVG Export Plug-In  -->
<!DOCTYPE svg PUBLIC "-//W3C//DTD SVG 1.1//EN" "http://www.w3.org/Graphics/SVG/1.1/DTD/svg11.dtd" [
	<!ENTITY ns_flows "http://ns.adobe.com/Flows/1.0/">
]>
<svg version="1.1"
	 xmlns="http://www.w3.org/2000/svg" xmlns:xlink="http://www.w3.org/1999/xlink" xmlns:a="http://ns.adobe.com/AdobeSVGViewerExtensions/3.0/"
	 x="0px" y="0px" width="183px" height="231px" viewBox="-17.271 -6.784 183 231"
	 overflow="visible" enable-background="new -17.271 -6.784 183 231" xml:space="preserve">
<defs>
</defs>
<path fill="#334A5E" d="M130.155,214.67H18.873C8.455,214.67,0,206.223,0,195.798V18.879C0,8.455,8.452,0,18.873,0h111.282
	c10.424,0,18.875,8.455,18.875,18.879v176.919C149.03,206.223,140.579,214.67,130.155,214.67L130.155,214.67z"/>
<path fill="#2B3B4E" d="M130.155,0H74.124v214.67h56.031c10.424,0,18.875-8.447,18.875-18.872V18.879
	C149.03,8.455,140.579,0,130.155,0L130.155,0z"/>
<polygon fill="#BBE4EA" points="15.97,15.675 133.064,15.675 133.064,54.703 15.97,54.703 15.97,15.675 "/>
<polygon fill="#8AD7F8" points="74.126,15.675 133.064,15.675 133.064,54.703 74.126,54.703 74.126,15.675 "/>
<polygon fill="#8AD7F8" points="80.428,68.304 101.721,68.304 101.721,87.822 80.428,87.822 80.428,68.304 "/>
<polygon fill="#BBE4EA" points="47.313,68.304 68.602,68.304 68.602,87.822 47.313,87.822 47.313,68.304 "/>
<polygon fill="#8AD7F8" points="113.546,68.304 133.064,68.304 133.064,87.822 113.546,87.822 113.546,68.304 "/>
<polygon fill="#BBE4EA" points="15.97,68.304 35.484,68.304 35.484,87.822 15.97,87.822 15.97,68.304 "/>
<polygon fill="#BBE4EA" points="47.313,95.444 68.602,95.444 68.602,114.955 47.313,114.955 47.313,95.444 "/>
<polygon fill="#8AD7F8" points="80.428,95.444 101.721,95.444 101.721,114.955 80.428,114.955 80.428,95.444 "/>
<polygon fill="#BBE4EA" points="15.97,95.444 35.484,95.444 35.484,114.955 15.97,114.955 15.97,95.444 "/>
<polygon fill="#8AD7F8" points="113.546,95.444 133.064,95.444 133.064,114.955 113.546,114.955 113.546,95.444 "/>
<polygon fill="#8AD7F8" points="80.428,122.563 101.721,122.563 101.721,142.074 80.428,142.074 80.428,122.563 "/>
<polygon fill="#BBE4EA" points="47.313,122.563 68.602,122.563 68.602,142.074 47.313,142.074 47.313,122.563 "/>
<polygon fill="#BBE4EA" points="15.97,122.563 35.484,122.563 35.484,142.074 15.97,142.074 15.97,122.563 "/>
<polygon fill="#8AD7F8" points="80.428,149.689 101.721,149.689 101.721,169.207 80.428,169.207 80.428,149.689 "/>
<polygon fill="#BBE4EA" points="47.313,149.689 68.602,149.689 68.602,169.207 47.313,169.207 47.313,149.689 "/>
<polygon fill="#BBE4EA" points="15.97,149.689 35.484,149.689 35.484,169.207 15.97,169.207 15.97,149.689 "/>
<polygon fill="#8AD7F8" points="80.428,176.822 101.721,176.822 101.721,196.339 80.428,196.339 80.428,176.822 "/>
<polygon fill="#BBE4EA" points="47.313,176.822 68.602,176.822 68.602,196.339 47.313,196.339 47.313,176.822 "/>
<polygon fill="#F36F59" points="113.546,122.563 133.064,122.563 133.064,196.333 113.546,196.333 113.546,122.563 "/>
<polygon fill="#BBE4EA" points="15.97,176.822 35.484,176.822 35.484,196.339 15.97,196.339 15.97,176.822 "/>
</svg>
