<?xml version="1.0" encoding="utf-8"?>
<!-- Generator: Adobe Illustrator 15.0.0, SVG Export Plug-In  -->
<!DOCTYPE svg PUBLIC "-//W3C//DTD SVG 1.1//EN" "http://www.w3.org/Graphics/SVG/1.1/DTD/svg11.dtd" [
	<!ENTITY ns_flows "http://ns.adobe.com/Flows/1.0/">
]>
<svg version="1.1"
	 xmlns="http://www.w3.org/2000/svg" xmlns:xlink="http://www.w3.org/1999/xlink" xmlns:a="http://ns.adobe.com/AdobeSVGViewerExtensions/3.0/"
	 x="0px" y="0px" width="183px" height="231px" viewBox="-12.006 -3.203 183 231"
	 overflow="visible" enable-background="new -12.006 -3.203 183 231" xml:space="preserve">
<defs>
</defs>
<rect x="80.345" y="171.371" fill="#868491" width="13.99" height="20.979"/>
<rect x="80.345" y="171.371" fill="#5D556A" width="6.993" height="20.979"/>
<path fill="#BA7958" d="M66.449,206.344v-6.993c0-3.869,3.131-7,6.997-7h27.976c3.866,0,6.997,3.131,6.997,7v6.993"/>
<path fill="#99645A" d="M87.337,192.351H73.446c-3.866,0-6.997,3.131-6.997,7v6.993h20.889V192.351z M87.337,192.351"/>
<path fill="#5D556A" d="M87.436,20.986c-1.935,0-3.5-1.569-3.5-3.5V3.5c0-1.931,1.565-3.5,3.5-3.5c1.931,0,3.493,1.569,3.493,3.5
	v13.986C90.928,19.417,89.366,20.986,87.436,20.986L87.436,20.986z M87.436,20.986"/>
<path fill="#5D556A" d="M87.436,174.864c-1.935,0-3.5-1.562-3.5-3.493v-13.993c0-1.932,1.565-3.493,3.5-3.493
	c1.931,0,3.493,1.562,3.493,3.493v13.993C90.928,173.302,89.366,174.864,87.436,174.864L87.436,174.864z M87.436,174.864"/>
<path fill="#99645A" d="M111.915,202.844H62.953c-9.64,0-17.486,7.846-17.486,17.486c0,1.931,1.565,3.5,3.496,3.5h76.939
	c1.938,0,3.5-1.569,3.5-3.5C129.401,210.689,121.559,202.844,111.915,202.844L111.915,202.844z M111.915,202.844"/>
<path fill="#FFD788" d="M160.783,87.432c0,40.563-32.886,73.446-73.446,73.446c-40.563,0-73.441-32.883-73.441-73.446
	c0-40.562,32.878-73.438,73.441-73.438C127.897,13.993,160.783,46.869,160.783,87.432L160.783,87.432z M160.783,87.432"/>
<path fill="#E6BD89" d="M87.337,160.878c20.282,0,38.643-8.223,51.932-21.507L35.403,35.5
	C22.114,48.792,13.896,67.154,13.896,87.432C13.896,127.995,46.774,160.878,87.337,160.878L87.337,160.878z M87.337,160.878"/>
<path fill="#E6BD89" d="M160.237,78.616c-3.952-32.998-29.762-59.257-62.548-63.885l-4.1,6.682
	c-0.159,0.289-0.423,0.499-0.741,0.586c-0.326,0.086-0.658,0.05-0.944-0.116L81.172,15.7c-0.437-0.253-0.987-0.21-1.377,0.108
	L64.463,28.174c-2.606,2.098-4.104,5.229-4.104,8.57v3.363c0,0.362,0.167,0.709,0.449,0.94c0.282,0.232,0.658,0.326,1.012,0.261
	l10.88-2.141l-1.674,2.929c-0.412,0.716-0.955,1.337-1.62,1.837l-9.734,7.347c-0.307,0.231-0.488,0.593-0.488,0.977v5.785
	l-3.258,0.348c-3.243,0.347-5.64,3.16-5.467,6.415l0.177,3.269c0.141,2.625,1.935,4.867,4.469,5.568l3.326,0.926
	c-3.641,1.113-6.128,4.483-6.042,8.381l0.054,2.523l-3.743,7.225c-3.095,5.959-2.694,13.119,1.049,18.694l1.782,2.646
	c2.434,3.63,6.802,5.482,11.079,4.708l16.271-2.907l3.786,4.694c2.567,3.174,5.938,5.626,9.745,7.094l1.656,0.636v10.218
	c0,1.114,0.401,3.11,1.229,6.104c1.045,3.789,3.511,6.928,6.946,8.86c2.235,1.251,4.694,1.886,7.185,1.886
	c1.367,0,2.741-0.194,4.094-0.578c0.365-0.107,0.661-0.376,0.799-0.729l10.717-27.091l14.345-13.516
	c0.191-0.173,0.318-0.413,0.365-0.672l1.433-7.875c0.064-0.376-0.045-0.76-0.293-1.042c-0.254-0.275-0.623-0.42-0.998-0.405
	l-3.476,0.246c-2.264,0.152-4.404-0.578-6.07-1.967l-20.977-26.504l23.438,22.73l10.023-5.467c2.169-1.613,3.468-4.188,3.468-6.885
	V78.92c0-0.391-0.191-0.766-0.511-0.991c-0.317-0.231-0.723-0.296-1.1-0.173l-2.726,0.904c-0.991,0.326-2.043,0.224-2.958-0.289
	c-0.915-0.521-1.544-1.367-1.775-2.394l-1.103-4.881l23.586,7.492C159.887,78.638,160.063,78.638,160.237,78.616L160.237,78.616z
	 M108.184,72.903l-1.892,1.707l-11.307,3.782c-1.432,0.478-3.001,0.268-4.256-0.564l-6.289-4.158
	c-2.223-1.476-4.794-2.242-7.412-2.242c-0.785,0-1.577,0.072-2.357,0.209l-11.408,2.011l3.381-2.524
	c0.727-0.542,1.288-1.272,1.62-2.112l2.13-5.351c1.919-1.779,4.729-2.141,7.018-0.926l6.668,5.909
	c0.376,0.333,0.929,0.397,1.381,0.166c0.448-0.239,0.705-0.73,0.644-1.237l-0.69-5.446c0.036-0.723,0.586-1.005,0.756-1.07
	c0.167-0.072,0.759-0.268,1.294,0.224l8.027,7.347c0.314,0.289,0.763,0.391,1.175,0.268l11.951-3.543
	c0.85,0.969,1.334,2.228,1.341,3.537C109.962,70.416,109.315,71.876,108.184,72.903L108.184,72.903z M113.072,57.116l-3.811,2.813
	c-0.42,0.311-0.934,0.485-1.454,0.485h-6.801c-1.353,0-2.444-1.099-2.444-2.452s1.092-2.444,2.444-2.444h5.995l3.16-2.343
	c1.085-0.803,2.625-0.572,3.425,0.513C114.388,54.773,114.16,56.306,113.072,57.116L113.072,57.116z M124.024,57.123
	c-0.434,0.318-0.939,0.47-1.439,0.47c-0.759,0-1.504-0.347-1.981-1.005l-6.267-8.598c-0.799-1.085-0.553-2.618,0.535-3.414
	c1.092-0.803,2.625-0.557,3.421,0.528l6.262,8.599C125.358,54.795,125.116,56.328,124.024,57.123L124.024,57.123z M124.024,57.123"
	/>
<path fill="#E6BD89" d="M53.504,52.459c-0.181,0-0.358-0.015-0.535-0.058c-1.32-0.289-2.151-1.598-1.858-2.922l1.353-6.089
	l-2.426-1.49c-1.154-0.701-1.516-2.213-0.81-3.363c0.712-1.157,2.22-1.519,3.37-0.81l3.916,2.408
	c0.886,0.543,1.334,1.591,1.107,2.611l-1.729,7.795C55.637,51.685,54.621,52.459,53.504,52.459L53.504,52.459z M53.504,52.459"/>
<path fill="#C9A07C" d="M72.01,72.107l-8.747,1.541l3.381-2.524c0.723-0.542,1.288-1.272,1.62-2.112l0.188-0.462L58.067,58.165
	l-2.145,0.224c-3.24,0.347-5.641,3.16-5.463,6.415l0.177,3.269c0.141,2.625,1.935,4.867,4.469,5.576l3.326,0.918
	c-3.641,1.113-6.128,4.483-6.042,8.381l0.054,2.523l-3.743,7.225c-3.095,5.959-2.694,13.119,1.049,18.694l1.782,2.654
	c2.434,3.623,6.802,5.475,11.079,4.701l16.271-2.907l3.786,4.694c2.567,3.174,5.938,5.626,9.749,7.094l1.652,0.636v10.218
	c0,1.114,0.405,3.11,1.229,6.104c1.045,3.789,3.515,6.928,6.946,8.86c2.235,1.251,4.701,1.886,7.189,1.886
	c1.363,0,2.737-0.194,4.09-0.578c0.365-0.101,0.661-0.369,0.799-0.729l10.717-27.091l0.926-0.867L72.01,72.107z M72.01,72.107"/>
<path fill="#99645A" d="M101.421,174.864H87.436C39.221,174.864,0,135.646,0,87.432C0,39.225,39.221,0,87.436,0h13.986
	c1.935,0,3.5,1.569,3.5,3.5s-1.566,3.5-3.5,3.5H87.436C43.08,7,6.997,43.08,6.997,87.432c0,44.353,36.083,80.439,80.439,80.439
	h13.986c1.935,0,3.5,1.569,3.5,3.5S103.356,174.864,101.421,174.864L101.421,174.864z M101.421,174.864"/>
<path fill="#7E5D62" d="M87.337,202.844H62.953c-9.64,0-17.486,7.846-17.486,17.486c0,1.931,1.565,3.5,3.496,3.5h38.375V202.844z
	 M87.337,202.844"/>
</svg>
