<?xml version="1.0" encoding="utf-8"?>
<!-- Generator: Adobe Illustrator 15.0.0, SVG Export Plug-In  -->
<!DOCTYPE svg PUBLIC "-//W3C//DTD SVG 1.1//EN" "http://www.w3.org/Graphics/SVG/1.1/DTD/svg11.dtd" [
	<!ENTITY ns_flows "http://ns.adobe.com/Flows/1.0/">
]>
<svg version="1.1"
	 xmlns="http://www.w3.org/2000/svg" xmlns:xlink="http://www.w3.org/1999/xlink" xmlns:a="http://ns.adobe.com/AdobeSVGViewerExtensions/3.0/"
	 x="0px" y="0px" width="287px" height="231px" viewBox="-8.451 -15.364 287 231"
	 overflow="visible" enable-background="new -8.451 -15.364 287 231" xml:space="preserve">
<defs>
</defs>
<path fill="#F3ECBE" d="M165.733,79.415V55.242V17.263C165.733,7.771,173.501,0,182.996,0h-17.263h-20.719H34.525
	c-9.515,0-17.23,7.712-17.23,17.229v158.862h113.906v6.904c0,9.491,7.771,17.262,17.27,17.262c9.53,0,17.263-7.731,17.263-17.262
	l0,0V79.415L165.733,79.415z"/>
<path fill="#AB9FAB" d="M182.996,0L182.996,0c9.494,0,17.261,7.771,17.261,17.263v6.903h-34.523v-6.903
	C165.733,7.771,173.501,0,182.996,0"/>
<path fill="#AB9FAB" d="M131.201,182.996v-6.904H0v6.904c0,9.491,7.771,17.262,17.266,17.262h131.205
	C138.972,200.257,131.201,192.487,131.201,182.996"/>
<path fill="#AB9FAB" d="M103.581,48.338H75.96c-1.906,0-3.452-1.546-3.452-3.449c0-1.908,1.545-3.454,3.452-3.454h27.621
	c1.909,0,3.456,1.546,3.456,3.454C107.036,46.792,105.49,48.338,103.581,48.338"/>
<path fill="#AB9FAB" d="M65.601,44.889c0,1.903-1.546,3.449-3.452,3.449c-1.905,0-3.452-1.546-3.452-3.449
	c0-1.908,1.547-3.454,3.452-3.454C64.055,41.435,65.601,42.981,65.601,44.889"/>
<path fill="#AB9FAB" d="M48.339,48.338H34.525c-1.902,0-3.452-1.546-3.452-3.449c0-1.908,1.549-3.454,3.452-3.454h13.813
	c1.902,0,3.448,1.546,3.448,3.454C51.787,46.792,50.241,48.338,48.339,48.338"/>
<path fill="#AB9FAB" d="M148.471,48.338h-17.27c-1.901,0-3.451-1.546-3.451-3.449c0-1.908,1.55-3.454,3.451-3.454h17.27
	c1.901,0,3.448,1.546,3.448,3.454C151.919,46.792,150.372,48.338,148.471,48.338"/>
<path fill="#AB9FAB" d="M120.846,44.889c0,1.903-1.547,3.449-3.452,3.449c-1.909,0-3.455-1.546-3.455-3.449
	c0-1.908,1.546-3.454,3.455-3.454C119.299,41.435,120.846,42.981,120.846,44.889"/>
<path fill="#AB9FAB" d="M62.149,31.076h-13.81c-1.909,0-3.456-1.546-3.456-3.455c0-1.908,1.547-3.455,3.456-3.455h13.81
	c1.906,0,3.452,1.547,3.452,3.455C65.601,29.53,64.055,31.076,62.149,31.076"/>
<path fill="#AB9FAB" d="M31.074,27.621c0-1.908,1.549-3.455,3.452-3.455c1.908,0,3.455,1.547,3.455,3.455
	c0,1.909-1.546,3.455-3.455,3.455C32.623,31.076,31.074,29.53,31.074,27.621"/>
<path fill="#AB9FAB" d="M145.015,27.621c0-1.908,1.548-3.455,3.456-3.455c1.901,0,3.448,1.547,3.448,3.455
	c0,1.909-1.547,3.455-3.448,3.455C146.562,31.076,145.015,29.53,145.015,27.621"/>
<path fill="#AB9FAB" d="M134.656,31.076h-10.358c-1.905,0-3.452-1.546-3.452-3.455c0-1.908,1.546-3.455,3.452-3.455h10.358
	c1.906,0,3.455,1.547,3.455,3.455C138.111,29.53,136.562,31.076,134.656,31.076"/>
<path fill="#AB9FAB" d="M107.036,27.621c0-1.908,1.546-3.455,3.452-3.455s3.452,1.547,3.452,3.455c0,1.909-1.546,3.455-3.452,3.455
	S107.036,29.53,107.036,27.621"/>
<path fill="#AB9FAB" d="M72.508,27.621c0-1.908,1.545-3.455,3.452-3.455c1.905,0,3.455,1.547,3.455,3.455
	c0,1.909-1.55,3.455-3.455,3.455C74.054,31.076,72.508,29.53,72.508,27.621"/>
<path fill="#AB9FAB" d="M96.677,31.076h-6.904c-1.909,0-3.455-1.546-3.455-3.455c0-1.908,1.546-3.455,3.455-3.455h6.904
	c1.909,0,3.456,1.547,3.456,3.455C100.132,29.53,98.586,31.076,96.677,31.076"/>
<path fill="#AB9FAB" d="M62.149,65.601h-13.81c-1.909,0-3.456-1.547-3.456-3.449c0-1.909,1.547-3.455,3.456-3.455h13.81
	c1.906,0,3.452,1.546,3.452,3.455C65.601,64.054,64.055,65.601,62.149,65.601"/>
<path fill="#AB9FAB" d="M31.074,62.152c0-1.909,1.549-3.455,3.452-3.455c1.908,0,3.455,1.546,3.455,3.455
	c0,1.902-1.546,3.449-3.455,3.449C32.623,65.601,31.074,64.054,31.074,62.152"/>
<path fill="#AB9FAB" d="M145.015,62.152c0-1.909,1.548-3.455,3.456-3.455c1.901,0,3.448,1.546,3.448,3.455
	c0,1.902-1.547,3.449-3.448,3.449C146.562,65.601,145.015,64.054,145.015,62.152"/>
<path fill="#AB9FAB" d="M134.656,65.601h-10.358c-1.905,0-3.452-1.547-3.452-3.449c0-1.909,1.546-3.455,3.452-3.455h10.358
	c1.906,0,3.455,1.546,3.455,3.455C138.111,64.054,136.562,65.601,134.656,65.601"/>
<path fill="#AB9FAB" d="M107.036,62.152c0-1.909,1.546-3.455,3.452-3.455s3.452,1.546,3.452,3.455c0,1.902-1.546,3.449-3.452,3.449
	S107.036,64.054,107.036,62.152"/>
<path fill="#AB9FAB" d="M72.508,62.152c0-1.909,1.545-3.455,3.452-3.455c1.905,0,3.455,1.546,3.455,3.455
	c0,1.902-1.55,3.449-3.455,3.449C74.054,65.601,72.508,64.054,72.508,62.152"/>
<path fill="#AB9FAB" d="M96.677,65.601h-6.904c-1.909,0-3.455-1.547-3.455-3.449c0-1.909,1.546-3.455,3.455-3.455h6.904
	c1.909,0,3.456,1.546,3.456,3.455C100.132,64.054,98.586,65.601,96.677,65.601"/>
<path fill="#AB9FAB" d="M103.581,82.864H75.96c-1.906,0-3.452-1.547-3.452-3.449c0-1.909,1.545-3.455,3.452-3.455h27.621
	c1.909,0,3.456,1.546,3.456,3.455C107.036,81.316,105.49,82.864,103.581,82.864"/>
<path fill="#AB9FAB" d="M65.601,79.415c0,1.902-1.546,3.449-3.452,3.449c-1.905,0-3.452-1.547-3.452-3.449
	c0-1.909,1.547-3.455,3.452-3.455C64.055,75.959,65.601,77.506,65.601,79.415"/>
<path fill="#AB9FAB" d="M48.339,82.864H34.525c-1.902,0-3.452-1.547-3.452-3.449c0-1.909,1.549-3.455,3.452-3.455h13.813
	c1.902,0,3.448,1.546,3.448,3.455C51.787,81.316,50.241,82.864,48.339,82.864"/>
<path fill="#AB9FAB" d="M148.471,82.864h-17.27c-1.901,0-3.451-1.547-3.451-3.449c0-1.909,1.55-3.455,3.451-3.455h17.27
	c1.901,0,3.448,1.546,3.448,3.455C151.919,81.316,150.372,82.864,148.471,82.864"/>
<path fill="#AB9FAB" d="M120.846,79.415c0,1.902-1.547,3.449-3.452,3.449c-1.909,0-3.455-1.547-3.455-3.449
	c0-1.909,1.546-3.455,3.455-3.455C119.299,75.959,120.846,77.506,120.846,79.415"/>
<path fill="#AB9FAB" d="M62.149,100.132h-13.81c-1.909,0-3.456-1.547-3.456-3.455c0-1.902,1.547-3.456,3.456-3.456h13.81
	c1.906,0,3.452,1.553,3.452,3.456C65.601,98.585,64.055,100.132,62.149,100.132"/>
<path fill="#AB9FAB" d="M31.074,96.677c0-1.902,1.549-3.456,3.452-3.456c1.908,0,3.455,1.553,3.455,3.456
	c0,1.908-1.546,3.455-3.455,3.455C32.623,100.132,31.074,98.585,31.074,96.677"/>
<path fill="#AB9FAB" d="M145.015,96.677c0-1.902,1.548-3.456,3.456-3.456c1.901,0,3.448,1.553,3.448,3.456
	c0,1.908-1.547,3.455-3.448,3.455C146.562,100.132,145.015,98.585,145.015,96.677"/>
<path fill="#AB9FAB" d="M134.656,100.132h-10.358c-1.905,0-3.452-1.547-3.452-3.455c0-1.902,1.546-3.456,3.452-3.456h10.358
	c1.906,0,3.455,1.553,3.455,3.456C138.111,98.585,136.562,100.132,134.656,100.132"/>
<path fill="#AB9FAB" d="M107.036,96.677c0-1.902,1.546-3.456,3.452-3.456s3.452,1.553,3.452,3.456c0,1.908-1.546,3.455-3.452,3.455
	S107.036,98.585,107.036,96.677"/>
<path fill="#AB9FAB" d="M72.508,96.677c0-1.902,1.545-3.456,3.452-3.456c1.905,0,3.455,1.553,3.455,3.456
	c0,1.908-1.55,3.455-3.455,3.455C74.054,100.132,72.508,98.585,72.508,96.677"/>
<path fill="#AB9FAB" d="M96.677,100.132h-6.904c-1.909,0-3.455-1.547-3.455-3.455c0-1.902,1.546-3.456,3.455-3.456h6.904
	c1.909,0,3.456,1.553,3.456,3.456C100.132,98.585,98.586,100.132,96.677,100.132"/>
<path fill="#AB9FAB" d="M62.149,117.395h-13.81c-1.909,0-3.456-1.547-3.456-3.456c0-1.901,1.547-3.448,3.456-3.448h13.81
	c1.906,0,3.452,1.546,3.452,3.448C65.601,115.848,64.055,117.395,62.149,117.395"/>
<path fill="#AB9FAB" d="M31.074,113.939c0-1.901,1.549-3.448,3.452-3.448c1.908,0,3.455,1.546,3.455,3.448
	c0,1.909-1.546,3.456-3.455,3.456C32.623,117.395,31.074,115.848,31.074,113.939"/>
<path fill="#AB9FAB" d="M145.015,113.939c0-1.901,1.548-3.448,3.456-3.448c1.901,0,3.448,1.546,3.448,3.448
	c0,1.909-1.547,3.456-3.448,3.456C146.562,117.395,145.015,115.848,145.015,113.939"/>
<path fill="#AB9FAB" d="M134.656,117.395h-10.358c-1.905,0-3.452-1.547-3.452-3.456c0-1.901,1.546-3.448,3.452-3.448h10.358
	c1.906,0,3.455,1.546,3.455,3.448C138.111,115.848,136.562,117.395,134.656,117.395"/>
<path fill="#AB9FAB" d="M107.036,113.939c0-1.901,1.546-3.448,3.452-3.448s3.452,1.546,3.452,3.448c0,1.909-1.546,3.456-3.452,3.456
	S107.036,115.848,107.036,113.939"/>
<path fill="#AB9FAB" d="M72.508,113.939c0-1.901,1.545-3.448,3.452-3.448c1.905,0,3.455,1.546,3.455,3.448
	c0,1.909-1.55,3.456-3.455,3.456C74.054,117.395,72.508,115.848,72.508,113.939"/>
<path fill="#AB9FAB" d="M96.677,117.395h-6.904c-1.909,0-3.455-1.547-3.455-3.456c0-1.901,1.546-3.448,3.455-3.448h6.904
	c1.909,0,3.456,1.546,3.456,3.448C100.132,115.848,98.586,117.395,96.677,117.395"/>
<path fill="#AB9FAB" d="M103.581,134.656H75.96c-1.906,0-3.452-1.545-3.452-3.453c0-1.903,1.545-3.45,3.452-3.45h27.621
	c1.909,0,3.456,1.547,3.456,3.45C107.036,133.111,105.49,134.656,103.581,134.656"/>
<path fill="#AB9FAB" d="M65.601,131.203c0,1.908-1.546,3.453-3.452,3.453c-1.905,0-3.452-1.545-3.452-3.453
	c0-1.903,1.547-3.45,3.452-3.45C64.055,127.753,65.601,129.3,65.601,131.203"/>
<path fill="#AB9FAB" d="M48.339,134.656H34.525c-1.902,0-3.452-1.545-3.452-3.453c0-1.903,1.549-3.45,3.452-3.45h13.813
	c1.902,0,3.448,1.547,3.448,3.45C51.787,133.111,50.241,134.656,48.339,134.656"/>
<path fill="#AB9FAB" d="M148.471,134.656h-17.27c-1.901,0-3.451-1.545-3.451-3.453c0-1.903,1.55-3.45,3.451-3.45h17.27
	c1.901,0,3.448,1.547,3.448,3.45C151.919,133.111,150.372,134.656,148.471,134.656"/>
<path fill="#AB9FAB" d="M120.846,131.203c0,1.908-1.547,3.453-3.452,3.453c-1.909,0-3.455-1.545-3.455-3.453
	c0-1.903,1.546-3.45,3.455-3.45C119.299,127.753,120.846,129.3,120.846,131.203"/>
<path fill="#AB9FAB" d="M62.149,151.918h-13.81c-1.909,0-3.456-1.545-3.456-3.447c0-1.909,1.547-3.457,3.456-3.457h13.81
	c1.906,0,3.452,1.548,3.452,3.457C65.601,150.374,64.055,151.918,62.149,151.918"/>
<path fill="#AB9FAB" d="M31.074,148.471c0-1.909,1.549-3.457,3.452-3.457c1.908,0,3.455,1.548,3.455,3.457
	c0,1.902-1.546,3.447-3.455,3.447C32.623,151.918,31.074,150.374,31.074,148.471"/>
<path fill="#AB9FAB" d="M134.656,151.918h-10.358c-1.905,0-3.452-1.545-3.452-3.447c0-1.909,1.546-3.457,3.452-3.457h10.358
	c1.906,0,3.455,1.548,3.455,3.457C138.111,150.374,136.562,151.918,134.656,151.918"/>
<path fill="#AB9FAB" d="M107.036,148.471c0-1.909,1.546-3.457,3.452-3.457s3.452,1.548,3.452,3.457c0,1.902-1.546,3.447-3.452,3.447
	S107.036,150.374,107.036,148.471"/>
<path fill="#AB9FAB" d="M72.508,148.471c0-1.909,1.545-3.457,3.452-3.457c1.905,0,3.455,1.548,3.455,3.457
	c0,1.902-1.55,3.447-3.455,3.447C74.054,151.918,72.508,150.374,72.508,148.471"/>
<path fill="#AB9FAB" d="M96.677,151.918h-6.904c-1.909,0-3.455-1.545-3.455-3.447c0-1.909,1.546-3.457,3.455-3.457h6.904
	c1.909,0,3.456,1.548,3.456,3.457C100.132,150.374,98.586,151.918,96.677,151.918"/>
<path fill="#B3B3B3" d="M151.002,151.918l21.75-18.122l-4.05-4.859l-27.581,22.981H151.002z M151.002,151.918"/>
<path fill="#601D5A" d="M235.559,91.837c6.652-6.658,15.534-11.038,21.953-9.453c13.247-18.311,16.521-37.146-1.61-50.332
	c-5.662-4.115-15.632-2.051-27.11,4.329c-3.149,6.516-6.685,14.376-9.046,20.666V42.114c-13.444,9.459-27.857,23.72-39.364,40.218
	c-1.976,7.143-2.667,14.396-1.746,18.996c-2.022-0.679-4.329-3.073-6.431-5.965c-12.547,10.702-9.38,24.936-14.063,45.518
	c15.752-3.19,37.885,1.553,47.302-14.564c-1.196-0.226-2.426-0.608-3.09-1.275c3.126-1.565,7.021-2.355,10.546-3.138
	c14.126-8.793,27.861-19.831,38.143-31.464C245.043,87.094,237.519,92.814,235.559,91.837L235.559,91.837z M235.559,91.837"/>
<path fill="#9368AD" d="M158.141,140.881c4.684-20.582,1.517-34.816,14.063-45.524c2.102,2.892,4.408,5.292,6.431,5.965
	c-0.921-4.593-0.229-11.853,1.746-18.989c11.507-16.498,25.92-30.759,39.364-40.218v14.933c2.361-6.289,5.896-14.15,9.046-20.659
	c11.47-6.386,21.448-8.451,27.11-4.335C251.373,53.883,189.698,117.136,158.141,140.881L158.141,140.881z M158.141,140.881"/>
</svg>
