<?xml version="1.0" encoding="utf-8"?>
<!-- Generator: Adobe Illustrator 15.0.0, SVG Export Plug-In  -->
<!DOCTYPE svg PUBLIC "-//W3C//DTD SVG 1.1//EN" "http://www.w3.org/Graphics/SVG/1.1/DTD/svg11.dtd" [
	<!ENTITY ns_flows "http://ns.adobe.com/Flows/1.0/">
]>
<svg version="1.1"
	 xmlns="http://www.w3.org/2000/svg" xmlns:xlink="http://www.w3.org/1999/xlink" xmlns:a="http://ns.adobe.com/AdobeSVGViewerExtensions/3.0/"
	 x="0px" y="0px" width="260px" height="53px" viewBox="-4.928 -5.163 260 53"
	 overflow="visible" enable-background="new -4.928 -5.163 260 53" xml:space="preserve">
<defs>
</defs>
<path fill="#2D2D2D" d="M7.824,5.842H0V0.433h21.959v5.409h-7.824v20.372H7.824V5.842z"/>
<path fill="#2D2D2D" d="M22.932,7.645h6.24v10.89c0,1.73,0.684,2.451,1.983,2.451c2.667,0,3.931-2.343,3.931-5.12V7.645h6.236
	v18.569h-5.985v-1.622c0-0.615,0.071-1.153,0.071-1.153h-0.071c-1.01,1.979-3.317,3.208-5.807,3.208
	c-3.677,0-6.599-1.731-6.599-6.958V7.645z"/>
<path fill="#2D2D2D" d="M46.875,12.836h-2.38V7.969h2.56V2.633h6.059v5.336h3.894v4.868h-3.894v5.698c0,2.09,2.126,2.38,3.316,2.38
	c0.505,0,0.83-0.036,0.83-0.036v5.408c0,0-0.686,0.107-1.695,0.107c-2.957,0-8.689-0.792-8.689-7.031V12.836z"/>
<path fill="#2D2D2D" d="M70.023,7.211c5.879,0,10.565,3.93,10.565,9.772c0,5.805-4.687,9.663-10.528,9.663
	s-10.529-3.857-10.529-9.663C59.531,11.142,64.219,7.211,70.023,7.211z M70.061,21.454c2.271,0,4.217-1.694,4.217-4.47
	c0-2.812-1.945-4.58-4.217-4.58s-4.221,1.767-4.221,4.58C65.84,19.76,67.789,21.454,70.061,21.454z"/>
<path fill="#2D2D2D" d="M83.833,7.645h5.986v3.136c0,0.613-0.073,1.154-0.073,1.154h0.073c0.792-2.523,3.136-4.615,5.913-4.615
	c0.359,0,0.721,0.073,0.721,0.073v6.129c0,0-0.506-0.108-1.263-0.108c-1.478,0-3.894,0.469-4.794,3.246
	c-0.217,0.685-0.324,1.513-0.324,2.523v7.031h-6.239V7.645z"/>
<path fill="#7B2674" d="M98.762,23.439c0-9.521,11.142-11.215,11.142-14.929c0-1.803-1.444-2.56-2.778-2.56
	c-2.451,0-3.82,2.74-3.82,2.74l-4.688-3.137c0,0,2.379-5.553,9.086-5.553c4.22,0,8.799,2.416,8.799,7.897
	c0,8.041-10.385,9.59-10.565,12.908h10.962v5.409h-17.85C98.869,25.203,98.762,24.304,98.762,23.439z"/>
<path fill="#2D2D2D" d="M127.066,15.649l-8.51-15.216h7.176l2.92,6.201c0.829,1.768,1.552,3.714,1.552,3.714h0.072
	c0,0,0.721-1.947,1.55-3.714l2.885-6.201h7.174l-8.509,15.216v10.565h-6.31V15.649z"/>
<path fill="#2D2D2D" d="M151.225,7.211c5.877,0,10.564,3.93,10.564,9.772c0,5.805-4.688,9.663-10.528,9.663
	s-10.528-3.857-10.528-9.663C140.732,11.142,145.42,7.211,151.225,7.211z M151.261,21.454c2.272,0,4.218-1.694,4.218-4.47
	c0-2.812-1.945-4.58-4.218-4.58s-4.22,1.767-4.22,4.58C147.041,19.76,148.988,21.454,151.261,21.454z"/>
<path fill="#2D2D2D" d="M164.781,7.645h6.239v10.89c0,1.73,0.685,2.451,1.982,2.451c2.669,0,3.931-2.343,3.931-5.12V7.645h6.239
	v18.569h-5.987v-1.622c0-0.615,0.072-1.153,0.072-1.153h-0.072c-1.009,1.979-3.316,3.208-5.807,3.208
	c-3.677,0-6.598-1.731-6.598-6.958V7.645z"/>
<path fill="#2D2D2D" d="M188.4,20.229h5.949l-4.074,9.986h-4.581L188.4,20.229z"/>
<path fill="#2D2D2D" d="M199.838,7.361h4.615V22.26h7.698v3.954h-12.313V7.361z"/>
<path fill="#2D2D2D" d="M214.684,7.361h4.613V22.26h7.699v3.954h-12.312V7.361z"/>
<path fill="#2D2D2D" d="M237.993,7.045c4.667,0,7.066,2.663,7.066,2.663l-2.136,3.481c0,0-2.109-1.925-4.719-1.925
	c-3.613,0-5.328,2.663-5.328,5.379c0,2.795,1.847,5.668,5.328,5.668c2.847,0,5.01-2.319,5.01-2.319l2.371,3.375
	c0,0-2.662,3.163-7.593,3.163c-5.906,0-9.888-4.192-9.888-9.781C228.105,11.264,232.324,7.045,237.993,7.045z"/>
<path fill="#2D2D2D" d="M247.697,21.891h4.323v4.323h-4.323V21.891z"/>
<path fill="#7B2674" d="M0,34.363h3.419v0.575H0.596v2.371h2.307v0.573H0.596v2.417h2.979v0.575H0V34.363z"/>
<path fill="#7B2674" d="M6.653,34.363h1.96c1.822,0,3.047,1.194,3.047,3.251c0,2.074-1.225,3.259-3.047,3.259h-1.96V34.363z
	 M8.553,40.299c1.494,0,2.486-0.944,2.486-2.685c0-1.733-1.002-2.677-2.486-2.677H7.248v5.361H8.553z"/>
<path fill="#7B2674" d="M14.688,34.363h0.604v4.232c0,1.121,0.675,1.796,1.719,1.796c1.045,0,1.727-0.675,1.727-1.815v-4.213h0.596
	v4.242c0,1.445-0.939,2.38-2.314,2.38c-1.379,0-2.33-0.935-2.33-2.38V34.363z"/>
<path fill="#7B2674" d="M25.381,34.252c1.451,0,2.184,0.843,2.184,0.843l-0.318,0.473c0,0-0.709-0.723-1.848-0.723
	c-1.426,0-2.443,1.186-2.443,2.724c0,1.556,1.018,2.824,2.461,2.824c1.225,0,1.969-0.87,1.969-0.87l0.346,0.453
	c0,0-0.829,1.01-2.324,1.01c-1.795,0-3.073-1.509-3.073-3.408C22.333,35.688,23.645,34.252,25.381,34.252z"/>
<path fill="#7B2674" d="M33.742,38.799H31.3l-0.69,2.074h-0.631l2.228-6.511h0.64l2.227,6.511h-0.63L33.742,38.799z M32.518,35.04
	c0,0-0.131,0.537-0.234,0.842l-0.811,2.362h2.09l-0.795-2.362c-0.104-0.305-0.233-0.842-0.233-0.842H32.518z"/>
<path fill="#7B2674" d="M38.766,34.938h-2.185v-0.575h4.956v0.575h-2.176v5.936h-0.596V34.938z"/>
<path fill="#7B2674" d="M44.201,34.363h0.596v6.511h-0.596V34.363z"/>
<path fill="#7B2674" d="M48.282,34.363h0.578l3.103,4.686c0.205,0.324,0.498,0.879,0.498,0.879h0.018c0,0-0.052-0.537-0.052-0.879
	v-4.686h0.597v6.511h-0.578l-3.101-4.686c-0.208-0.324-0.501-0.879-0.501-0.879h-0.017c0,0,0.052,0.537,0.052,0.879v4.686h-0.597
	V34.363z"/>
<path fill="#7B2674" d="M59.158,34.252c1.406,0,2.158,0.759,2.158,0.759l-0.319,0.482c0,0-0.709-0.648-1.813-0.648
	c-1.468,0-2.461,1.214-2.461,2.76c0,1.603,1.028,2.788,2.408,2.788c1.185,0,1.908-0.954,1.908-0.954v-1.102h-1.035v-0.575h1.606
	v3.112h-0.552v-0.491c0-0.14,0.007-0.278,0.007-0.278h-0.017c0,0-0.699,0.879-1.977,0.879c-1.658,0-2.971-1.436-2.971-3.37
	C56.102,35.734,57.414,34.252,59.158,34.252z"/>
<path fill="#7B2674" d="M70.186,34.938h-2.185v-0.575h4.957v0.575h-2.177v5.936h-0.596V34.938z"/>
<path fill="#7B2674" d="M75.621,34.363h0.596v2.963h3.522v-2.963h0.597v6.511h-0.597v-2.973h-3.522v2.973h-0.596V34.363z"/>
<path fill="#7B2674" d="M83.82,34.363h3.419v0.575h-2.823v2.371h2.306v0.573h-2.306v2.417h2.979v0.575H83.82V34.363z"/>
<path fill="#7B2674" d="M97.621,35.317c0,0-0.096,0.555-0.199,0.973l-1.156,4.584h-0.717l-1.572-6.511h0.621l1.176,5.057
	c0.077,0.333,0.138,0.694,0.138,0.694h0.017c0.01,0,0.053-0.361,0.139-0.694l1.277-5.057h0.57l1.277,5.057
	c0.088,0.333,0.13,0.694,0.139,0.694h0.018c0,0,0.061-0.361,0.138-0.694l1.218-5.057h0.621l-1.614,6.511h-0.716l-1.158-4.584
	c-0.104-0.417-0.198-0.973-0.198-0.973H97.621z"/>
<path fill="#7B2674" d="M106.896,34.252c1.719,0,3.092,1.454,3.092,3.325c0,1.907-1.373,3.408-3.092,3.408
	c-1.718,0-3.091-1.5-3.091-3.408C103.806,35.706,105.179,34.252,106.896,34.252z M106.896,40.392c1.364,0,2.469-1.223,2.469-2.815
	c0-1.556-1.104-2.732-2.469-2.732c-1.373,0-2.469,1.176-2.469,2.732C104.428,39.169,105.523,40.392,106.896,40.392z"/>
<path fill="#7B2674" d="M113.057,34.363h1.797c0.62,0,0.896,0.064,1.139,0.176c0.571,0.269,0.914,0.89,0.914,1.677
	c0,0.879-0.464,1.555-1.146,1.759v0.02c0,0,0.061,0.083,0.155,0.258l1.319,2.622h-0.682l-1.371-2.741h-1.528v2.741h-0.597V34.363z
	 M115.094,37.557c0.734,0,1.201-0.508,1.201-1.323c0-0.537-0.199-0.935-0.553-1.139c-0.181-0.102-0.397-0.157-0.863-0.157h-1.226
	v2.62H115.094z"/>
<path fill="#7B2674" d="M120.202,34.363h0.597v5.936h2.814v0.575h-3.411V34.363z"/>
<path fill="#7B2674" d="M126.397,34.363h1.962c1.82,0,3.046,1.194,3.046,3.251c0,2.074-1.226,3.259-3.046,3.259h-1.962V34.363z
	 M128.297,40.299c1.496,0,2.486-0.944,2.486-2.685c0-1.733-1.001-2.677-2.486-2.677h-1.303v5.361H128.297z"/>
<path fill="#7B2674" d="M141.234,34.252c1.719,0,3.091,1.454,3.091,3.325c0,1.907-1.372,3.408-3.091,3.408
	c-1.717,0-3.093-1.5-3.093-3.408C138.142,35.706,139.518,34.252,141.234,34.252z M141.234,40.392c1.364,0,2.47-1.223,2.47-2.815
	c0-1.556-1.105-2.732-2.47-2.732c-1.373,0-2.469,1.176-2.469,2.732C138.766,39.169,139.861,40.392,141.234,40.392z"/>
<path fill="#7B2674" d="M147.396,34.363h0.576l3.1,4.686c0.207,0.324,0.501,0.879,0.501,0.879h0.017c0,0-0.051-0.537-0.051-0.879
	v-4.686h0.595v6.511h-0.577l-3.1-4.686c-0.206-0.324-0.5-0.879-0.5-0.879h-0.02c0,0,0.053,0.537,0.053,0.879v4.686h-0.594V34.363z"
	/>
<path fill="#7B2674" d="M155.619,34.363h3.418v0.575h-2.824v2.371h2.308v0.573h-2.308v2.417h2.982v0.575h-3.576V34.363z"/>
<path fill="#7B2674" d="M166.612,34.363h0.622l1.589,3.825c0.137,0.333,0.293,0.797,0.293,0.797h0.017c0,0,0.164-0.464,0.304-0.797
	l1.587-3.825h0.614l0.483,6.511h-0.596l-0.338-4.557c-0.025-0.351-0.018-0.906-0.018-0.906h-0.016c0,0-0.182,0.573-0.32,0.906
	l-1.424,3.343h-0.562l-1.425-3.343c-0.138-0.324-0.327-0.926-0.327-0.926h-0.017c0,0,0.006,0.575-0.02,0.926l-0.334,4.557h-0.598
	L166.612,34.363z"/>
<path fill="#7B2674" d="M175.415,34.363h0.595v6.511h-0.595V34.363z"/>
<path fill="#7B2674" d="M179.496,34.363h0.578l3.1,4.686c0.207,0.324,0.5,0.879,0.5,0.879h0.017c0,0-0.05-0.537-0.05-0.879v-4.686
	h0.595v6.511h-0.578l-3.099-4.686c-0.207-0.324-0.5-0.879-0.5-0.879h-0.02c0,0,0.053,0.537,0.053,0.879v4.686h-0.596V34.363z"/>
<path fill="#7B2674" d="M187.72,34.363h1.96c1.823,0,3.049,1.194,3.049,3.251c0,2.074-1.226,3.259-3.049,3.259h-1.96V34.363z
	 M189.619,40.299c1.493,0,2.488-0.944,2.488-2.685c0-1.733-1.002-2.677-2.488-2.677h-1.305v5.361H189.619z"/>
<path fill="#7B2674" d="M202.874,38.799h-2.44l-0.691,2.074h-0.631l2.227-6.511h0.638l2.229,6.511h-0.631L202.874,38.799z
	 M201.649,35.04c0,0-0.13,0.537-0.233,0.842l-0.812,2.362h2.091l-0.794-2.362c-0.105-0.305-0.234-0.842-0.234-0.842H201.649z"/>
<path fill="#7B2674" d="M207.897,34.938h-2.185v-0.575h4.956v0.575h-2.175v5.936h-0.597V34.938z"/>
<path fill="#7B2674" d="M220.377,38.799h-2.443l-0.691,2.074h-0.631l2.23-6.511h0.637l2.228,6.511h-0.632L220.377,38.799z
	 M219.15,35.04c0,0-0.129,0.537-0.233,0.842l-0.811,2.362h2.091l-0.796-2.362c-0.104-0.305-0.233-0.842-0.233-0.842H219.15z"/>
<path fill="#7B2674" d="M229.835,34.938h-2.187v-0.575h4.957v0.575h-2.176v5.936h-0.595V34.938z"/>
<path fill="#7B2674" d="M235.27,34.363h0.594v6.511h-0.594V34.363z"/>
<path fill="#7B2674" d="M239.645,34.363h0.621l1.589,3.825c0.138,0.333,0.294,0.797,0.294,0.797h0.017c0,0,0.164-0.464,0.304-0.797
	l1.587-3.825h0.614l0.482,6.511h-0.596l-0.337-4.557c-0.024-0.351-0.017-0.906-0.017-0.906h-0.018c0,0-0.181,0.573-0.32,0.906
	l-1.422,3.343h-0.562l-1.426-3.343c-0.137-0.324-0.326-0.926-0.326-0.926h-0.018c0,0,0.007,0.575-0.019,0.926l-0.335,4.557h-0.598
	L239.645,34.363z"/>
<path fill="#7B2674" d="M248.447,34.363h3.419v0.575h-2.824v2.371h2.305v0.573h-2.305v2.417h2.979v0.575h-3.573V34.363z"/>
</svg>
