<?xml version="1.0" encoding="utf-8"?>
<!-- Generator: Adobe Illustrator 15.0.0, SVG Export Plug-In  -->
<!DOCTYPE svg PUBLIC "-//W3C//DTD SVG 1.1//EN" "http://www.w3.org/Graphics/SVG/1.1/DTD/svg11.dtd" [
	<!ENTITY ns_flows "http://ns.adobe.com/Flows/1.0/">
]>
<svg version="1.1"
	 xmlns="http://www.w3.org/2000/svg" xmlns:xlink="http://www.w3.org/1999/xlink" xmlns:a="http://ns.adobe.com/AdobeSVGViewerExtensions/3.0/"
	 x="0px" y="0px" width="800px" height="400px" viewBox="-28.897 -22.924 800 400"
	 overflow="visible" enable-background="new -28.897 -22.924 800 400" xml:space="preserve">
<defs>
</defs>
<g>
	<polygon fill="#FFFFFF" points="159.96,52.363 0,52.363 0,116.161 89.927,116.161 89.927,348.701 162.467,348.701 162.467,116.161 
		247.25,116.161 187.18,76.971 203.694,52.363 	"/>
</g>
<g>
	<path fill="#FFFFFF" d="M582.115,52.428l-33.156,71.254c-9.511,20.314-17.808,42.691-17.808,42.691h-0.824
		c0,0-8.299-22.376-17.841-42.691l-33.561-71.254h-30.438c17.5,27.787,17.5,65.342,5.353,102.542l40.451,72.322v121.409h72.475
		V227.292l97.804-174.864H582.115z"/>
</g>
<g>
	<path fill="#FFFFFF" d="M209.856,311.785c0-126.634,148.202-149.181,148.202-198.584c0-23.978-19.182-34.054-36.958-34.054
		c-32.623,0-50.802,36.448-50.802,36.448l-62.367-41.729c0,0,31.636-73.866,120.835-73.866c56.156,0,117.05,32.146,117.05,105.049
		c0,106.951-138.125,127.588-140.535,171.71H451.09v71.941H213.674C211.296,335.253,209.856,323.309,209.856,311.785z"/>
</g>
<path fill="#FFFFFF" d="M609.741,297.843h12.227v39.52h20.46v10.507h-32.687V297.843z"/>
<path fill="#FFFFFF" d="M649.124,297.843h12.243v39.52h20.428v10.507h-32.671V297.843z"/>
<path fill="#FFFFFF" d="M710.973,297.009c12.389,0,18.746,7.068,18.746,7.068l-5.678,9.219c0,0-5.58-5.086-12.486-5.086
	c-9.607,0-14.168,7.052-14.168,14.272c0,7.392,4.9,15.026,14.168,15.026c7.537,0,13.263-6.153,13.263-6.153l6.291,8.96
	c0,0-7.067,8.386-20.136,8.386c-15.688,0-26.233-11.104-26.233-25.936C684.739,308.21,695.947,297.009,710.973,297.009z"/>
<path fill="#FFFFFF" d="M736.705,336.401h11.5v11.468h-11.5V336.401z"/>
</svg>
