<?xml version="1.0" encoding="utf-8"?>
<!-- Generator: Adobe Illustrator 15.0.0, SVG Export Plug-In  -->
<!DOCTYPE svg PUBLIC "-//W3C//DTD SVG 1.1//EN" "http://www.w3.org/Graphics/SVG/1.1/DTD/svg11.dtd" [
	<!ENTITY ns_flows "http://ns.adobe.com/Flows/1.0/">
]>
<svg version="1.1"
	 xmlns="http://www.w3.org/2000/svg" xmlns:xlink="http://www.w3.org/1999/xlink" xmlns:a="http://ns.adobe.com/AdobeSVGViewerExtensions/3.0/"
	 x="0px" y="0px" width="642px" height="400px" viewBox="-12.734 -19.173 642 400"
	 overflow="visible" enable-background="new -12.734 -19.173 642 400" xml:space="preserve">
<defs>
</defs>
<path fill="#601D5A" d="M575.307,0H258.108c-25.03,0-45.317,20.292-45.317,45.319v3.281h149.721c32.595,0,59.11,26.515,59.11,59.108
	v115.758h78.444l61.167,77.797v-77.797h14.072c25.028,0,45.314-20.287,45.314-45.315V45.319C620.621,20.292,600.335,0,575.307,0z"/>
<path fill="#7B2674" d="M362.513,62.394H45.314C20.287,62.394,0,82.681,0,107.708v132.833c0,25.027,20.287,45.318,45.314,45.318
	h14.072v77.793l61.167-77.793h241.959c25.03,0,45.319-20.291,45.319-45.318V107.708C407.832,82.681,387.543,62.394,362.513,62.394z"
	/>
<path fill="#D7C6D6" d="M76.541,201.175v-20.182H56.922v-13.789h19.619v-20.177h15.47v20.177h19.619v13.789H92.011v20.182H76.541z"
	/>
<path fill="#A2739D" d="M139.209,167.319h54.483v13.789h-54.483V167.319z M159.443,159.975c-1.906-1.904-2.858-4.243-2.858-7.006
	c0-2.764,0.952-5.103,2.858-7.006c1.906-1.904,4.242-2.86,7.008-2.86c2.764,0,5.101,0.957,7.006,2.86
	c1.906,1.904,2.858,4.242,2.858,7.006c0,2.764-0.952,5.103-2.858,7.006c-1.906,1.908-4.242,2.86-7.006,2.86
	C163.686,162.834,161.349,161.883,159.443,159.975z M159.443,202.465c-1.906-1.908-2.858-4.242-2.858-7.006
	c0-2.765,0.952-5.103,2.858-7.007c1.906-1.908,4.242-2.86,7.008-2.86c2.764,0,5.101,0.952,7.006,2.86
	c1.906,1.904,2.858,4.242,2.858,7.007c0,2.764-0.952,5.098-2.858,7.006c-1.906,1.904-4.242,2.855-7.006,2.855
	C163.686,205.32,161.349,204.369,159.443,202.465z"/>
<path fill="#D7C6D6" d="M223.399,187.163v-14.91h39.91v14.91H223.399z"/>
<path fill="#A2739D" d="M320.708,162.834l17.825-18.273l9.64,9.976l-17.601,18.049l17.713,18.273l-9.641,9.981l-17.937-18.278
	l-17.827,18.278l-9.864-9.981l17.937-18.273l-17.825-18.049l9.864-9.976L320.708,162.834z"/>
<path fill-rule="evenodd" clip-rule="evenodd" fill="#29AE4A" d="M507.158,128.311c11.755-17.77,26.243-38.862,39.011-57.657
	c1.973-2.896,4.071-8.658,9.196-7.949c2.482,0.344,4.583,2.664,7.205,4.476c2.856,1.968,5.814,2.979,5.966,6.461
	c0.14,3.396-4.377,8.132-6.462,11.18c-14.374,20.969-28.16,41.525-42.745,63.121c-2.293,3.396-5.3,8.416-8.699,8.947
	c-5.389,0.851-9.121-4.151-12.171-7.203c-6.348-6.352-12.699-12.69-19.136-19.134c-2.567-2.567-8.554-6.663-8.7-10.443
	c-0.128-3.263,3.428-5.908,5.215-7.702c2.156-2.155,4.261-5.377,7.46-5.469c4.523-0.119,10.116,7.876,12.425,10.187
	C499.958,121.364,502.829,124.083,507.158,128.311z"/>
</svg>
